# xmcd
#
# Track frame offsets:
#	150
#	15150
#	33150
#	51000
#	67950
#	91875
#	107175
#	126525
#
# Disc length: 1979 seconds
#
# Revision: 0
# Processed by: cddbd v1.5.1PL2 Copyright (c) Steve Scherf et al.
# Submitted via: dBpowerAMP V4.0
#
DISCID=5d07b908
DTITLE=Eclectic Buffalo - Eclectic Buffalo
DYEAR=2005
DGENRE=Folk-Rock
TTITLE0=What
TTITLE1=TinMan
TTITLE2=Midnight Rain
TTITLE3=One Way
TTITLE4=Sweet Marie
TTITLE5=Maker
TTITLE6=Wine
TTITLE7=Feeling Blue (for DD)
EXTD=music is love
EXTT0=
EXTT1=
EXTT2=
EXTT3=
EXTT4=
EXTT5=
EXTT6=
EXTT7=
PLAYORDER=
